<?xml version="1.0" encoding="UTF-8" standalone="no"?>
<svg width="130px" height="138px" viewBox="0 0 130 138" version="1.1" xmlns="http://www.w3.org/2000/svg" xmlns:xlink="http://www.w3.org/1999/xlink" xmlns:sketch="http://www.bohemiancoding.com/sketch/ns">
    <!-- Generator: Sketch 3.4.2 (15855) - http://www.bohemiancoding.com/sketch -->
    <title>Slice 1</title>
    <desc>Created with Sketch.</desc>
    <defs></defs>
    <g id="Page-1" stroke="none" stroke-width="1" fill="none" fill-rule="evenodd" sketch:type="MSPage">
        <path d="M128.8369,76.645 C128.9319,75.214 128.9799,73.774 128.9799,72.32 L129.0379,72.317 C127.8919,61.995 119.1029,54.071 108.4589,54.071 C97.0389,54.071 87.7779,62.786 87.7779,74.205 C87.7779,87.44 82.0449,99.179 72.9299,107.248 C78.1809,109.934 84.1139,111.459 90.3989,111.459 C110.4109,111.459 126.9169,96.161 128.8369,76.645" id="Fill-1" fill="#5075D3" sketch:type="MSShapeGroup"></path>
        <path d="M90.3984,113.459 C83.4874,113.459 76.9774,111.713 71.2734,108.643 C58.4844,101.761 49.7634,88.209 49.7634,72.646 C49.7634,58.826 38.5994,47.583 24.8774,47.583 C11.1604,47.583 0.0004,58.751 0.0004,72.479 C0.0004,72.895 0.0234,73.306 0.0314,73.72 L0.1904,74.787 C0.1904,76.381 0.2664,77.905 0.3764,79.399 C0.4194,79.81 0.4804,80.216 0.5324,80.625 C1.1364,85.401 2.2504,90.019 3.8434,94.413 C12.8364,119.224 36.6284,137 64.4974,137 C90.8804,137 113.6104,121.019 123.5834,98.205 C124.2934,96.58 124.9444,94.923 125.5214,93.233 C118.4744,105.32 105.3694,113.459 90.3984,113.459" id="Fill-4" fill="#647FD6" sketch:type="MSShapeGroup"></path>
        <path d="M49.0726,17.158 C48.2606,6.943 39.3206,-0.679 29.1056,0.133 C18.8906,0.945 11.2686,9.885 12.0806,20.1 C12.8936,30.315 21.8326,37.937 32.0476,37.125 C42.2626,36.312 49.8846,27.373 49.0726,17.158" id="Fill-7" fill="#647FD6" sketch:type="MSShapeGroup"></path>
        <path d="M104.3034,8.1215 C96.0634,8.7765 89.9154,15.9875 90.5704,24.2275 C91.2254,32.4675 98.4364,38.6165 106.6774,37.9615 C114.9174,37.3055 121.0654,30.0945 120.4104,21.8545 C119.7554,13.6145 112.5444,7.4655 104.3034,8.1215" id="Fill-10" fill="#5075D3" sketch:type="MSShapeGroup"></path>
    </g>
</svg>