<?xml version="1.0" encoding="UTF-8" standalone="no"?>
<svg width="1024px" height="386px" viewBox="0 0 1024 386" version="1.1" xmlns="http://www.w3.org/2000/svg" xmlns:xlink="http://www.w3.org/1999/xlink">
    <!-- Generator: Sketch 3.7 (28169) - http://www.bohemiancoding.com/sketch -->
    <title>wally-figure-developer-info</title>
    <desc>Created with Sketch.</desc>
    <defs></defs>
    <g id="Page-1" stroke="none" stroke-width="1" fill="none" fill-rule="evenodd">
        <g id="wally-figure-developer-info">
            <g transform="translate(337.000000, 2.000000)">
                <path d="M20.4625293,327.452145 L266.012881,327.452145 C271.554829,327.452145 276.350714,325.426908 280.400576,321.376373 C284.450479,317.325839 286.47541,312.529222 286.47541,306.986386 L286.47541,20.4657591 C286.47541,14.9229357 284.450479,10.1262939 280.400576,6.07579269 C276.350714,2.02525059 271.554829,0 266.012881,0 L20.4625293,0 C14.9205683,0 10.1247081,2.02525059 6.07481338,6.07579269 C2.02491747,10.1262939 0,14.9229357 0,20.4657591 L0,306.986386 C0,312.529222 2.02491747,317.325839 6.07481338,321.376373 C10.1247081,325.426908 14.9205683,327.452145 20.4625293,327.452145 L20.4625293,327.452145 Z M20.4625293,20.4657591 L266.012881,20.4657591 L266.012881,306.986386 L20.4625293,306.986386 L20.4625293,20.4657591 Z M153.381148,61.3972772 L71.5310304,61.3972772 C68.546898,61.3972772 66.0956916,62.3565892 64.1772885,64.2752541 C62.2589264,66.19396 61.2997658,68.6455533 61.2997658,71.6301568 C61.2997658,74.6147603 62.2589264,77.0663536 64.1772885,78.9850594 C66.0956916,80.9037243 68.546898,81.8630363 71.5310304,81.8630363 L153.381148,81.8630363 C156.36528,81.8630363 158.816486,80.9037243 160.734889,78.9850594 C162.653252,77.0663536 163.612412,74.6147603 163.612412,71.6301568 C163.612412,68.6455533 162.653252,66.19396 160.734889,64.2752541 C158.816486,62.3565892 156.36528,61.3972772 153.381148,61.3972772 L153.381148,61.3972772 Z M214.856557,122.794554 L71.6188525,122.794554 C68.63472,122.794554 66.1835136,123.753866 64.2651105,125.672531 C62.3467484,127.591237 61.3875878,130.04283 61.3875878,133.027434 C61.3875878,136.012038 62.3467484,138.463631 64.2651105,140.382337 C66.1835136,142.301002 68.63472,143.260314 71.6188525,143.260314 L214.856557,143.260314 C217.84069,143.260314 220.291896,142.301002 222.210299,140.382337 C224.128661,138.463631 225.087822,136.012038 225.087822,133.027434 C225.087822,130.04283 224.128661,127.591237 222.210299,125.672531 C220.291896,123.753866 217.84069,122.794554 214.856557,122.794554 L214.856557,122.794554 Z M214.856557,184.191832 L71.6188525,184.191832 C68.63472,184.191832 66.1835136,185.151144 64.2651105,187.069809 C62.3467484,188.988514 61.3875878,191.440108 61.3875878,194.424711 C61.3875878,197.409315 62.3467484,199.860908 64.2651105,201.779614 C66.1835136,203.698279 68.63472,204.657591 71.6188525,204.657591 L214.856557,204.657591 C217.84069,204.657591 220.291896,203.698279 222.210299,201.779614 C224.128661,199.860908 225.087822,197.409315 225.087822,194.424711 C225.087822,191.440108 224.128661,188.988514 222.210299,187.069809 C220.291896,185.151144 217.84069,184.191832 214.856557,184.191832 L214.856557,184.191832 Z M214.856557,245.589109 L71.6188525,245.589109 C68.63472,245.589109 66.1835136,246.548421 64.2651105,248.467086 C62.3467484,250.385792 61.3875878,252.837385 61.3875878,255.821988 C61.3875878,258.806592 62.3467484,261.258185 64.2651105,263.176891 C66.1835136,265.095556 68.63472,266.054868 71.6188525,266.054868 L214.856557,266.054868 C217.84069,266.054868 220.291896,265.095556 222.210299,263.176891 C224.128661,261.258185 225.087822,258.806592 225.087822,255.821988 C225.087822,252.837385 224.128661,250.385792 222.210299,248.467086 C220.291896,246.548421 217.84069,245.589109 214.856557,245.589109 L214.856557,245.589109 Z" id="Page-1" fill="#5867D9"></path>
                <ellipse id="Oval-18" stroke="#5968D9" stroke-width="14.5" stroke-linecap="round" stroke-linejoin="round" fill="#FFFFFF" cx="290.163934" cy="288.059406" rx="84.8360656" ry="84.9405941"></ellipse>
                <path d="M269.127811,311.718131 C269.768189,311.718131 270.408553,311.5899 271.048918,311.333436 C271.689295,311.076973 272.265627,310.660223 272.777926,310.083185 C273.674447,309.057324 274.090672,307.871196 274.026639,306.524752 C273.962607,305.178309 273.418291,304.056305 272.393705,303.15868 L255.776127,288.347921 L273.738467,272.383102 C274.763066,271.485465 275.323389,270.347421 275.419439,268.968934 C275.5155,267.590434 275.083254,266.388278 274.122689,265.362417 C273.226168,264.336557 272.105545,263.791583 270.760758,263.727459 C269.415971,263.663347 268.231303,264.080098 267.206705,264.977723 L240.983607,288.347921 L265.861943,310.46788 C266.310197,310.916686 266.822484,311.237262 267.398828,311.42961 C267.97516,311.621959 268.55148,311.718131 269.127811,311.718131 L269.127811,311.718131 Z M313.121164,311.718131 L339.344262,288.347921 L314.465926,266.227987 C313.44134,265.330349 312.256672,264.913611 310.911885,264.977723 C309.567098,265.041834 308.446475,265.586821 307.549943,266.612681 C306.653422,267.63853 306.237197,268.824658 306.30123,270.171101 C306.365262,271.517545 306.909578,272.639549 307.934164,273.537186 L324.551742,288.347921 L306.589402,304.408932 C305.564803,305.306557 305.00448,306.428573 304.90843,307.775016 C304.812369,309.121448 305.244615,310.307576 306.20518,311.333436 C306.653434,311.910481 307.197738,312.32723 307.838115,312.583694 C308.478492,312.840158 309.150873,312.968389 309.85527,312.968389 C310.431615,312.968389 311.007934,312.872217 311.584279,312.679868 C312.160611,312.487519 312.672898,312.166944 313.121164,311.718131 L313.121164,311.718131 Z M290.067885,318.73881 L299.961578,259.591997 C300.153689,258.309677 299.865529,257.107521 299.097074,255.985481 C298.328631,254.863452 297.272041,254.206271 295.927254,254.013923 C294.582467,253.757464 293.349775,254.029951 292.229127,254.831396 C291.108467,255.632854 290.452107,256.706774 290.259984,258.053218 L280.366291,317.103857 C280.17418,318.450295 280.46234,319.668483 281.230795,320.758457 C281.999238,321.848431 283.055828,322.52164 284.400615,322.778104 C284.592725,322.778104 284.75282,322.794133 284.880885,322.826191 C285.008963,322.858249 285.137041,322.874278 285.265107,322.874278 C286.417783,322.874278 287.458377,322.489587 288.386914,321.720194 C289.315451,320.950801 289.875762,319.957016 290.067885,318.73881 L290.067885,318.73881 Z" id="Page-1" fill="#5867D9"></path>
            </g>
        </g>
    </g>
</svg>