<?xml version="1.0" encoding="UTF-8" standalone="no"?>
<svg width="298px" height="298px" viewBox="0 0 298 298" version="1.1" xmlns="http://www.w3.org/2000/svg" xmlns:xlink="http://www.w3.org/1999/xlink">
    <!-- Generator: Sketch 3.6.1 (26313) - http://www.bohemiancoding.com/sketch -->
    <title>wally-figure-settings</title>
    <desc>Created with Sketch.</desc>
    <defs></defs>
    <g id="Page-1" stroke="none" stroke-width="1" fill="none" fill-rule="evenodd">
        <g id="Wally-User-Mode-Copy-2" transform="translate(-334.000000, -166.000000)" fill="#5867D9">
            <g id="wally-figure-settings" transform="translate(334.000000, 166.000000)">
                <path d="M198.333348,148.750022 C198.333348,135.062877 193.491275,123.377319 183.806956,113.693044 C174.122681,104.008725 162.437123,99.1666522 148.749978,99.1666522 C135.062877,99.1666522 123.377319,104.008725 113.693044,113.693044 C104.008725,123.377319 99.1666522,135.062877 99.1666522,148.750022 C99.1666522,162.437123 104.008725,174.122681 113.693044,183.806956 C123.377319,193.491275 135.062877,198.333348 148.749978,198.333348 C162.437123,198.333348 174.122681,193.491275 183.806956,183.806956 C193.491275,174.122681 198.333348,162.437123 198.333348,148.750022 L198.333348,148.750022 Z M297.5,127.638331 L297.5,170.636402 C297.5,172.185869 296.983497,173.670778 295.950533,175.09113 C294.917527,176.511525 293.62629,177.350816 292.076823,177.609046 L256.245112,183.032223 C253.791753,190.00491 251.273881,195.879989 248.691407,200.657548 C253.210736,207.113732 260.118779,216.023144 269.415666,227.386088 C270.706903,228.935555 271.352521,230.549579 271.352521,232.228204 C271.352521,233.906786 270.771504,235.391695 269.609382,236.682932 C266.123017,241.460534 259.731477,248.433134 250.434547,257.60091 C241.137659,266.768709 235.068907,271.352538 232.228204,271.352538 C230.678694,271.352538 229.000112,270.771491 227.192372,269.609377 L200.463875,248.691407 C194.782425,251.661269 188.907346,254.114584 182.83855,256.051435 C180.772537,273.612285 178.900283,285.620626 177.221657,292.076823 C176.317809,295.692292 173.993609,297.5 170.249014,297.5 L127.250986,297.5 C125.443246,297.5 123.861501,296.951232 122.505706,295.853678 C121.149912,294.756125 120.407458,293.368064 120.278299,291.689452 L114.855122,256.051435 C108.528054,253.985469 102.717575,251.596712 97.423513,248.88508 L70.1139122,269.609377 C68.8226755,270.771491 67.2086513,271.352538 65.2717961,271.352538 C63.464056,271.352538 61.8500318,270.642367 60.42968,269.222006 C44.1600624,254.501882 33.5075111,243.655619 28.4716791,236.682932 C27.5678134,235.391695 27.1158849,233.906786 27.1158849,232.228204 C27.1158849,230.678694 27.6323709,229.193784 28.6653646,227.773433 C30.6022241,225.061844 33.8948344,220.76851 38.5432953,214.893387 C43.1917519,209.018265 46.6780651,204.466701 49.0022652,201.238609 C45.5159434,194.782425 42.8689297,188.390886 41.0611983,182.063817 L5.61686248,176.834312 C3.93825124,176.576082 2.58247045,175.76907 1.54947932,174.413233 C0.516487756,173.057438 0,171.54025 0,169.861669 L0,126.863598 C0,125.314131 0.516487756,123.829222 1.54947932,122.40887 C2.58247045,120.988475 3.80912931,120.149184 5.22949146,119.890954 L41.2548838,114.467777 C43.0626153,108.528097 45.5805009,102.58846 48.8085927,96.6487796 C43.6436458,89.2887041 36.7356116,80.3792921 28.0843081,69.9202397 C26.7930713,68.370773 26.1474616,66.8213063 26.1474616,65.2717961 C26.1474616,63.9805594 26.7285095,62.4956935 27.8906226,60.8170684 C31.2478468,56.1685814 37.6071031,49.2283032 46.9685739,39.9959302 C56.330062,30.7635571 62.4310927,26.147479 65.2717961,26.147479 C66.9504213,26.147479 68.629003,26.7930974 70.3076281,28.0843341 L97.0361246,48.8085927 C102.717575,45.8387309 108.592611,43.3854158 114.66145,41.4485606 C116.72742,23.8877062 118.599717,11.8793607 120.278299,5.42317697 C121.182191,1.80769673 123.506391,0 127.250986,0 L170.249014,0 C172.056754,0 173.638499,0.548782124 174.994294,1.64634637 C176.350088,2.74386723 177.092542,4.13194023 177.221657,5.81056535 L182.644834,41.4485606 C188.971903,43.5145741 194.782425,45.9033318 200.076487,48.6149202 L227.57976,27.8906182 C228.741882,26.7284965 230.291305,26.147479 232.228204,26.147479 C233.906786,26.147479 235.52081,26.7930974 237.07032,28.0843341 C253.727283,43.45006 264.379834,54.4254422 269.028321,61.0107409 C269.932169,62.0437477 270.384115,63.4640994 270.384115,65.2717961 C270.384115,66.8213063 269.867612,68.3062155 268.834648,69.7265672 C266.89775,72.4381557 263.605144,76.7314897 258.9567,82.6066125 C254.308257,88.4817354 250.821935,93.0332994 248.497735,96.2613912 C251.854942,102.717575 254.501929,109.044557 256.438784,115.242511 L291.883151,120.665688 C293.561732,120.923961 294.917527,121.730973 295.950533,123.086767 C296.983497,124.442562 297.5,125.95975 297.5,127.638331 L297.5,127.638331 Z" id="Page-1-Copy"></path>
                <path d="M198.333348,246.250007 C198.333348,241.810312 193.491275,238.01987 183.806956,234.878584 C174.122681,231.737284 162.437123,230.166662 148.749978,230.166662 C135.062877,230.166662 123.377319,231.737284 113.693044,234.878584 C104.008725,238.01987 99.1666522,241.810312 99.1666522,246.250007 C99.1666522,250.689688 104.008725,254.48013 113.693044,257.621416 C123.377319,260.762716 135.062877,262.333338 148.749978,262.333338 C162.437123,262.333338 174.122681,260.762716 183.806956,257.621416 C193.491275,254.48013 198.333348,250.689688 198.333348,246.250007 L198.333348,246.250007 Z M297.5,239.402013 L297.5,253.349287 C297.5,253.851887 296.983497,254.333546 295.950533,254.794266 C294.917527,255.254999 293.62629,255.527239 292.076823,255.611001 L256.245112,257.370116 C253.791753,259.631845 251.273881,261.537543 248.691407,263.087238 C253.210736,265.181429 260.118779,268.071373 269.415666,271.757168 C270.706903,272.259768 271.352521,272.783309 271.352521,273.327804 C271.352521,273.872285 270.771504,274.353945 269.609382,274.772783 C266.123017,276.322492 259.731477,278.584193 250.434547,281.557942 C241.137659,284.531699 235.068907,286.018554 232.228204,286.018554 C230.678694,286.018554 229.000112,285.83008 227.192372,285.453126 L200.463875,278.667969 C194.782425,279.631302 188.907346,280.427084 182.83855,281.055339 C180.772537,286.751548 178.900283,290.646691 177.221657,292.740885 C176.317809,293.913634 173.993609,294.5 170.249014,294.5 L127.250986,294.5 C125.443246,294.5 123.861501,294.321996 122.505706,293.965983 C121.149912,293.60997 120.407458,293.159725 120.278299,292.615234 L114.855122,281.055339 C108.528054,280.385203 102.717575,279.610362 97.423513,278.730791 L70.1139122,285.453126 C68.8226755,285.83008 67.2086513,286.018554 65.2717961,286.018554 C63.464056,286.018554 61.8500318,285.788196 60.42968,285.327474 C44.1600624,280.552711 33.5075111,277.034512 28.4716791,274.772783 C27.5678134,274.353945 27.1158849,273.872285 27.1158849,273.327804 C27.1158849,272.82519 27.6323709,272.34353 28.6653646,271.882811 C30.6022241,271.003254 33.8948344,269.610626 38.5432953,267.704914 C43.1917519,265.799202 46.6780651,264.322812 49.0022652,263.275717 C45.5159434,261.181526 42.8689297,259.108304 41.0611983,257.055994 L5.61686248,255.359701 C3.93825124,255.275939 2.58247045,255.014169 1.54947932,254.574376 C0.516487756,254.134598 0,253.642468 0,253.097987 L0,239.150713 C0,238.648113 0.516487756,238.166454 1.54947932,237.705734 C2.58247045,237.245001 3.80912931,236.972761 5.22949146,236.888999 L41.2548838,235.129884 C43.0626153,233.203231 45.5805009,231.276593 48.8085927,229.34994 C43.6436458,226.962554 36.7356116,224.072611 28.0843081,220.680011 C26.7930713,220.17741 26.1474616,219.67481 26.1474616,219.172196 C26.1474616,218.753358 26.7285095,218.271712 27.8906226,217.727217 C31.2478468,216.219389 37.6071031,213.968172 46.9685739,210.97347 C56.330062,207.978767 62.4310927,206.481451 65.2717961,206.481451 C66.9504213,206.481451 68.629003,206.69087 70.3076281,207.109708 L97.0361246,213.832031 C102.717575,212.868698 108.592611,212.072916 114.66145,211.444659 C116.72742,205.748449 118.599717,201.853305 120.278299,199.759115 C121.182191,198.586362 123.506391,198 127.250986,198 L170.249014,198 C172.056754,198 173.638499,198.178008 174.994294,198.534025 C176.350088,198.890028 177.092542,199.340276 177.221657,199.884772 L182.644834,211.444659 C188.971903,212.114811 194.782425,212.889652 200.076487,213.769209 L227.57976,207.046873 C228.741882,206.669916 230.291305,206.481451 232.228204,206.481451 C233.906786,206.481451 235.52081,206.69087 237.07032,207.109708 C253.727283,212.093885 264.379834,215.653967 269.028321,217.790039 C269.932169,218.125115 270.384115,218.585834 270.384115,219.172196 C270.384115,219.67481 269.867612,220.15647 268.834648,220.617189 C266.89775,221.496746 263.605144,222.889374 258.9567,224.795086 C254.308257,226.700798 250.821935,228.177188 248.497735,229.224283 C251.854942,231.318474 254.501929,233.370755 256.438784,235.381184 L291.883151,237.140299 C293.561732,237.224075 294.917527,237.485845 295.950533,237.925624 C296.983497,238.365402 297.5,238.857532 297.5,239.402013 L297.5,239.402013 Z" id="Page-1" opacity="0.2"></path>
            </g>
        </g>
    </g>
</svg>