<?xml version="1.0" encoding="UTF-8" standalone="no"?>
<svg width="704px" height="435px" viewBox="0 0 704 435" version="1.1" xmlns="http://www.w3.org/2000/svg" xmlns:xlink="http://www.w3.org/1999/xlink">
    <!-- Generator: Sketch 3.6.1 (26313) - http://www.bohemiancoding.com/sketch -->
    <title>wally-figure-user-modes</title>
    <desc>Created with Sketch.</desc>
    <defs>
        <path id="path-1" d="M236,4.5 L236,103.5"></path>
        <path id="path-2" d="M456,4.5 L456,103.5"></path>
    </defs>
    <g id="Page-1" stroke="none" stroke-width="1" fill="none" fill-rule="evenodd">
        <g id="Wally-User-Mode" transform="translate(-160.000000, -96.000000)">
            <g id="wally-figure-user-modes" transform="translate(160.000000, 96.000000)">
                <g id="Group">
                    <rect id="Rectangle-16" stroke="#5867D9" stroke-width="4" stroke-linecap="round" stroke-linejoin="round" x="0" y="0" width="704" height="107"></rect>
                    <text id="Förenklad" font-family="Roboto-Bold, Roboto" font-size="36" font-weight="bold" fill="#5867D9">
                        <tspan x="37" y="66">Förenklad</tspan>
                    </text>
                    <text id="Standard" font-family="Roboto-Bold, Roboto" font-size="36" font-weight="bold" fill="#5867D9">
                        <tspan x="272" y="66">Standard</tspan>
                    </text>
                    <text id="Avancerad" font-family="Roboto-Bold, Roboto" font-size="36" font-weight="bold" fill="#5867D9">
                        <tspan x="492" y="66">Avancerad</tspan>
                    </text>
                    <g id="Line">
                        <use stroke="#5867D9" stroke-width="4" stroke-linecap="square" stroke-linejoin="round" xlink:href="#path-1"></use>
                        <use stroke="none" xlink:href="#path-1"></use>
                    </g>
                    <g id="Line-Copy">
                        <use stroke="#5867D9" stroke-width="4" stroke-linecap="square" stroke-linejoin="round" xlink:href="#path-2"></use>
                        <use stroke="none" xlink:href="#path-2"></use>
                    </g>
                </g>
                <path d="M351.800963,130.180625 C361.891694,130.180625 370.54076,126.464543 377.748437,119.032285 C384.956115,111.599979 388.559885,102.681364 388.559885,92.2761545 C388.559885,81.6231715 384.956115,72.5806935 377.748437,65.1483876 C370.54076,57.7160816 361.891694,54 351.800963,54 C341.710233,54 333.061167,57.7160816 325.853489,65.1483876 C318.645811,72.5806935 315.042042,81.6231715 315.042042,92.2761545 C315.042042,102.681364 318.645811,111.599979 325.853489,119.032285 C333.061167,126.464543 341.710233,130.180625 351.800963,130.180625 L351.800963,130.180625 Z M462.077728,274.366437 C460.395917,265.943179 458.293733,256.467181 455.771039,245.938061 C453.248345,235.408989 450.425398,224.880059 447.302106,214.350987 C444.178769,203.821867 440.695118,193.974231 436.851017,184.807748 C433.006916,175.641264 428.922623,168.08519 424.598044,162.139383 C415.7086,150.990901 403.756064,144.363895 388.740064,142.25808 C373.724111,140.152266 361.41117,139.099335 351.800963,139.099335 C342.190757,139.099335 329.877816,140.152266 314.861862,142.25808 C299.845863,144.363895 287.893326,150.990901 279.003883,162.139383 C274.679281,168.08519 270.594996,175.641264 266.750909,184.807748 C262.906822,193.974231 259.423167,203.821867 256.299843,214.350987 C253.176519,224.880059 250.353559,235.408989 247.830878,245.938061 C245.308193,256.467181 243.205988,265.943179 241.524198,274.366437 C239.602154,283.780695 242.965681,289.602591 251.614883,291.832268 C260.264082,294.061946 266.150256,290.469727 269.27358,281.055517 C274.318946,267.181857 279.184049,254.361366 283.869037,242.593568 C288.55403,230.82577 294.980746,219.987136 303.149472,210.077426 C305.552001,223.951038 305.612061,239.930227 303.329652,258.015469 C301.047197,276.100758 298.10413,294.55735 294.500314,313.385818 C290.896452,332.214285 287.352742,350.608946 283.869037,368.570324 C280.385327,386.531702 278.403249,402.201239 277.922738,415.57937 C277.922738,420.781975 279.724628,425.241287 283.328462,428.957435 C286.932278,432.673583 291.256811,434.531629 296.302199,434.531629 C300.386539,434.531629 303.990309,433.416801 307.113647,431.187113 C310.236985,428.957426 312.399228,425.984551 313.600515,422.268403 C315.762805,414.836106 318.946156,404.67879 323.150616,391.796144 C327.355121,378.913507 331.619595,366.278763 335.944174,353.89165 C340.268753,341.504489 343.992688,330.789717 347.11598,321.747096 C350.239317,312.704476 351.800963,308.183237 351.800963,308.183237 L351.800963,308.183237 C351.800963,308.183237 353.362609,312.704476 356.485947,321.747096 C359.609239,330.789717 363.333174,341.504489 367.657753,353.89165 C371.982332,366.278763 376.246805,378.913507 380.451311,391.796144 C384.65577,404.67879 387.839122,414.836106 390.001411,422.268403 C391.202699,425.984551 393.364942,428.957426 396.48828,431.187113 C399.611618,433.416801 403.215387,434.531629 407.299727,434.531629 C412.345116,434.531629 416.669649,432.673583 420.273464,428.957435 C423.87728,425.241287 425.679211,420.781975 425.679211,415.57937 C425.198687,402.201239 423.216577,386.531702 419.732881,368.570324 C416.249184,350.608946 412.705474,332.214285 409.101612,313.385818 C405.497796,294.55735 402.55473,276.100758 400.272275,258.015469 C397.989866,239.930227 398.049926,223.951038 400.452454,210.077426 C408.62118,219.987136 415.047897,230.82577 419.732881,242.593568 C424.417864,254.361366 429.282981,267.181857 434.328369,281.055517 C437.451661,290.469727 443.33784,294.061946 451.987044,291.832268 C460.636248,289.602591 463.999779,283.780695 462.077728,274.366437 L462.077728,274.366437 Z" id="Page-1" fill="#5867D9"></path>
                <path d="M351.800963,277.262322 C361.891694,277.262322 370.54076,275.347111 377.748437,271.516639 C384.956115,267.686143 388.559885,263.089626 388.559885,257.726941 C388.559885,252.236558 384.956115,247.576204 377.748437,243.745707 C370.54076,239.915211 361.891694,238 351.800963,238 C341.710233,238 333.061167,239.915211 325.853489,243.745707 C318.645811,247.576204 315.042042,252.236558 315.042042,257.726941 C315.042042,263.089626 318.645811,267.686143 325.853489,271.516639 C333.061167,275.347111 341.710233,277.262322 351.800963,277.262322 L351.800963,277.262322 Z M462.077728,351.573472 C460.395917,347.232254 458.293733,342.34847 455.771039,336.921924 C453.248345,331.495402 450.425398,326.068953 447.302106,320.642432 C444.178769,315.215885 440.695118,310.140565 436.851017,305.416301 C433.006916,300.692036 428.922623,296.797752 424.598044,293.733374 C415.7086,287.987618 403.756064,284.572161 388.740064,283.486857 C373.724111,282.401552 361.41117,281.858888 351.800963,281.858888 C342.190757,281.858888 329.877816,282.401552 314.861862,283.486857 C299.845863,284.572161 287.893326,287.987618 279.003883,293.733374 C274.679281,296.797752 270.594996,300.692036 266.750909,305.416301 C262.906822,310.140565 259.423167,315.215885 256.299843,320.642432 C253.176519,326.068953 250.353559,331.495402 247.830878,336.921924 C245.308193,342.34847 243.205988,347.232254 241.524198,351.573472 C239.602154,356.425435 242.965681,359.425951 251.614883,360.575092 C260.264082,361.724234 266.150256,359.872859 269.27358,355.020921 C274.318946,347.87065 279.184049,341.263166 283.869037,335.198224 C288.55403,329.133282 294.980746,323.547216 303.149472,318.439904 C305.552001,325.590151 305.612061,333.825579 303.329652,343.146434 C301.047197,352.467314 298.10413,361.979558 294.500314,371.68346 C290.896452,381.387362 287.352742,390.867687 283.869037,400.124706 C280.385327,409.381724 278.403249,417.457561 277.922738,424.352445 C277.922738,427.033787 279.724628,429.332048 283.328462,431.247294 C286.932278,433.162539 291.256811,434.120147 296.302199,434.120147 C300.386539,434.120147 303.990309,433.545582 307.113647,432.396435 C310.236985,431.247289 312.399228,429.715115 313.600515,427.799869 C315.762805,423.969378 318.946156,418.734453 323.150616,412.094936 C327.355121,405.455423 331.619595,398.94367 335.944174,392.559542 C340.268753,386.17539 343.992688,380.653162 347.11598,375.992734 C350.239317,371.332307 351.800963,369.00213 351.800963,369.00213 L351.800963,369.00213 C351.800963,369.00213 353.362609,371.332307 356.485947,375.992734 C359.609239,380.653162 363.333174,386.17539 367.657753,392.559542 C371.982332,398.94367 376.246805,405.455423 380.451311,412.094936 C384.65577,418.734453 387.839122,423.969378 390.001411,427.799869 C391.202699,429.715115 393.364942,431.247289 396.48828,432.396435 C399.611618,433.545582 403.215387,434.120147 407.299727,434.120147 C412.345116,434.120147 416.669649,433.162539 420.273464,431.247294 C423.87728,429.332048 425.679211,427.033787 425.679211,424.352445 C425.198687,417.457561 423.216577,409.381724 419.732881,400.124706 C416.249184,390.867687 412.705474,381.387362 409.101612,371.68346 C405.497796,361.979558 402.55473,352.467314 400.272275,343.146434 C397.989866,333.825579 398.049926,325.590151 400.452454,318.439904 C408.62118,323.547216 415.047897,329.133282 419.732881,335.198224 C424.417864,341.263166 429.282981,347.87065 434.328369,355.020921 C437.451661,359.872859 443.33784,361.724234 451.987044,360.575092 C460.636248,359.425951 463.999779,356.425435 462.077728,351.573472 L462.077728,351.573472 Z" id="Page-1-Copy" fill="#5867D9" opacity="0.2"></path>
            </g>
        </g>
    </g>
</svg>