<?xml version="1.0" encoding="UTF-8" standalone="no"?>
<svg width="1024px" height="386px" viewBox="0 0 1024 386" version="1.1" xmlns="http://www.w3.org/2000/svg" xmlns:xlink="http://www.w3.org/1999/xlink">
    <!-- Generator: Sketch 3.7 (28169) - http://www.bohemiancoding.com/sketch -->
    <title>wally-figure-editor-info</title>
    <desc>Created with Sketch.</desc>
    <defs>
        <path d="M351.559037,210.178357 C343.983887,204.678588 337.62812,201.539605 332.491539,200.76135 C327.354957,199.983074 323.749025,199.801491 321.673644,200.216559 C321.051031,200.320321 320.506241,200.527865 320.039291,200.839171 C319.572322,201.150477 319.183194,201.513665 318.871888,201.928733 L264.082001,277.576154 C262.940538,279.132685 262.058514,280.792958 261.435898,282.557053 C260.813282,284.321128 260.450096,286.137064 260.346326,288.004902 L258.01153,332.832991 C257.907761,334.493298 258.504425,335.790396 259.801541,336.724319 C261.098655,337.658242 262.525462,337.813893 264.082001,337.191278 L305.952672,321.314663 C307.716767,320.588278 309.351099,319.65437 310.855749,318.512907 C312.360399,317.371445 313.631564,316.022458 314.669245,314.465927 L369.614796,238.818525 C369.926102,238.299675 370.159586,237.754904 370.315229,237.184173 C370.470892,236.613441 370.496833,236.01677 370.393071,235.394157 C370.081745,233.318776 368.732778,229.972269 366.346071,225.354538 C363.959383,220.736806 359.030425,215.678126 351.559037,210.178357 L351.559037,210.178357 Z M306.108335,312.286784 L289.76475,318.512907 C289.453444,318.720445 289.142158,318.77233 288.830852,318.66856 C288.519526,318.56479 288.26012,318.357256 288.052576,318.045958 C287.014876,316.696951 285.821552,315.347964 284.472565,313.998958 C283.123559,312.649971 281.463266,311.249103 279.491666,309.796334 C277.520041,308.447327 275.678165,307.331825 273.965973,306.449788 C272.253779,305.56775 270.619438,304.815435 269.062899,304.192823 C268.751591,304.089061 268.492172,303.907457 268.284634,303.648032 C268.077096,303.388607 267.973328,303.103261 267.973328,302.791935 L268.907246,285.358789 L273.265533,279.288329 C273.265533,279.288329 275.444654,279.443972 279.802953,279.755278 C284.161279,280.066604 289.557186,282.557014 295.990874,287.226626 C302.3208,291.896259 306.315859,296.228545 307.976172,300.223664 C309.636485,304.218783 310.466621,306.216323 310.466621,306.216323 L306.108335,312.286784 Z" id="path-1"></path>
        <mask id="mask-2" maskContentUnits="userSpaceOnUse" maskUnits="objectBoundingBox" x="-13" y="-13" width="138.455327" height="163.564848">
            <rect x="245" y="187" width="138.455327" height="163.564848" fill="white"></rect>
            <use xlink:href="#path-1" fill="black"></use>
        </mask>
    </defs>
    <g id="Page-1" stroke="none" stroke-width="1" fill="none" fill-rule="evenodd">
        <g id="wally-figure-editor-info">
            <g id="wally-figure-editor" transform="translate(337.000000, 2.000000)">
                <path d="M20.4625293,327.452145 L266.012881,327.452145 C271.554829,327.452145 276.350714,325.426908 280.400576,321.376373 C284.450479,317.325839 286.47541,312.529222 286.47541,306.986386 L286.47541,20.4657591 C286.47541,14.9229357 284.450479,10.1262939 280.400576,6.07579269 C276.350714,2.02525059 271.554829,0 266.012881,0 L20.4625293,0 C14.9205683,0 10.1247081,2.02525059 6.07481338,6.07579269 C2.02491747,10.1262939 0,14.9229357 0,20.4657591 L0,306.986386 C0,312.529222 2.02491747,317.325839 6.07481338,321.376373 C10.1247081,325.426908 14.9205683,327.452145 20.4625293,327.452145 L20.4625293,327.452145 Z M20.4625293,20.4657591 L266.012881,20.4657591 L266.012881,306.986386 L20.4625293,306.986386 L20.4625293,20.4657591 Z M153.381148,61.3972772 L71.5310304,61.3972772 C68.546898,61.3972772 66.0956916,62.3565892 64.1772885,64.2752541 C62.2589264,66.19396 61.2997658,68.6455533 61.2997658,71.6301568 C61.2997658,74.6147603 62.2589264,77.0663536 64.1772885,78.9850594 C66.0956916,80.9037243 68.546898,81.8630363 71.5310304,81.8630363 L153.381148,81.8630363 C156.36528,81.8630363 158.816486,80.9037243 160.734889,78.9850594 C162.653252,77.0663536 163.612412,74.6147603 163.612412,71.6301568 C163.612412,68.6455533 162.653252,66.19396 160.734889,64.2752541 C158.816486,62.3565892 156.36528,61.3972772 153.381148,61.3972772 L153.381148,61.3972772 Z M214.856557,122.794554 L71.6188525,122.794554 C68.63472,122.794554 66.1835136,123.753866 64.2651105,125.672531 C62.3467484,127.591237 61.3875878,130.04283 61.3875878,133.027434 C61.3875878,136.012038 62.3467484,138.463631 64.2651105,140.382337 C66.1835136,142.301002 68.63472,143.260314 71.6188525,143.260314 L214.856557,143.260314 C217.84069,143.260314 220.291896,142.301002 222.210299,140.382337 C224.128661,138.463631 225.087822,136.012038 225.087822,133.027434 C225.087822,130.04283 224.128661,127.591237 222.210299,125.672531 C220.291896,123.753866 217.84069,122.794554 214.856557,122.794554 L214.856557,122.794554 Z M214.856557,184.191832 L71.6188525,184.191832 C68.63472,184.191832 66.1835136,185.151144 64.2651105,187.069809 C62.3467484,188.988514 61.3875878,191.440108 61.3875878,194.424711 C61.3875878,197.409315 62.3467484,199.860908 64.2651105,201.779614 C66.1835136,203.698279 68.63472,204.657591 71.6188525,204.657591 L214.856557,204.657591 C217.84069,204.657591 220.291896,203.698279 222.210299,201.779614 C224.128661,199.860908 225.087822,197.409315 225.087822,194.424711 C225.087822,191.440108 224.128661,188.988514 222.210299,187.069809 C220.291896,185.151144 217.84069,184.191832 214.856557,184.191832 L214.856557,184.191832 Z M214.856557,245.589109 L71.6188525,245.589109 C68.63472,245.589109 66.1835136,246.548421 64.2651105,248.467086 C62.3467484,250.385792 61.3875878,252.837385 61.3875878,255.821988 C61.3875878,258.806592 62.3467484,261.258185 64.2651105,263.176891 C66.1835136,265.095556 68.63472,266.054868 71.6188525,266.054868 L214.856557,266.054868 C217.84069,266.054868 220.291896,265.095556 222.210299,263.176891 C224.128661,261.258185 225.087822,258.806592 225.087822,255.821988 C225.087822,252.837385 224.128661,250.385792 222.210299,248.467086 C220.291896,246.548421 217.84069,245.589109 214.856557,245.589109 L214.856557,245.589109 Z" id="Page-1" fill="#5867D9"></path>
                <ellipse id="Oval-18" stroke="#5968D9" stroke-width="14.5" stroke-linecap="round" stroke-linejoin="round" fill="#FFFFFF" cx="290.163934" cy="288.059406" rx="84.8360656" ry="84.9405941"></ellipse>
                <g id="Page-1">
                    <use fill="#5968D9" fill-rule="evenodd" xlink:href="#path-1"></use>
                    <use stroke="#FFFFFF" mask="url(#mask-2)" stroke-width="26" xlink:href="#path-1"></use>
                </g>
            </g>
        </g>
    </g>
</svg>